<mxfile host="app.diagrams.net" agent="Mozilla/5.0 (Macintosh; Intel Mac OS X 10_15_7) AppleWebKit/605.1.15 (KHTML, like Gecko) Version/17.6 Safari/605.1.15" version="25.0.3">
  <diagram name="Страница — 1" id="p6x4dZLK82oV9AKh7y7W">
    <mxGraphModel dx="3065" dy="2821" grid="1" gridSize="10" guides="1" tooltips="1" connect="1" arrows="1" fold="1" page="1" pageScale="1" pageWidth="827" pageHeight="1169" math="0" shadow="0">
      <root>
        <mxCell id="0" />
        <mxCell id="1" parent="0" />
        <mxCell id="sttNLxxdPH-_B0Zg1Kpw-1" style="edgeStyle=orthogonalEdgeStyle;rounded=0;orthogonalLoop=1;jettySize=auto;html=1;entryX=0.5;entryY=0;entryDx=0;entryDy=0;exitX=0;exitY=0.3333333333333333;exitDx=0;exitDy=0;exitPerimeter=0;endArrow=none;endFill=0;" parent="1" source="sttNLxxdPH-_B0Zg1Kpw-7" target="sttNLxxdPH-_B0Zg1Kpw-15" edge="1">
          <mxGeometry relative="1" as="geometry">
            <Array as="points">
              <mxPoint x="140" y="220" />
              <mxPoint x="140" y="-100" />
              <mxPoint x="545" y="-100" />
            </Array>
          </mxGeometry>
        </mxCell>
        <mxCell id="sttNLxxdPH-_B0Zg1Kpw-2" style="edgeStyle=orthogonalEdgeStyle;rounded=0;orthogonalLoop=1;jettySize=auto;html=1;exitX=1;exitY=0.3333333333333333;exitDx=0;exitDy=0;exitPerimeter=0;" parent="1" edge="1">
          <mxGeometry relative="1" as="geometry">
            <mxPoint x="139.99999999999977" y="230" as="sourcePoint" />
            <mxPoint x="665" y="-50" as="targetPoint" />
            <Array as="points">
              <mxPoint x="140" y="-130" />
              <mxPoint x="665" y="-130" />
            </Array>
          </mxGeometry>
        </mxCell>
        <mxCell id="sttNLxxdPH-_B0Zg1Kpw-3" style="rounded=0;orthogonalLoop=1;jettySize=auto;html=1;exitX=0;exitY=0.3333333333333333;exitDx=0;exitDy=0;exitPerimeter=0;entryX=1;entryY=0.5;entryDx=0;entryDy=0;endArrow=none;endFill=0;" parent="1" source="sttNLxxdPH-_B0Zg1Kpw-7" target="sttNLxxdPH-_B0Zg1Kpw-24" edge="1">
          <mxGeometry relative="1" as="geometry" />
        </mxCell>
        <mxCell id="sttNLxxdPH-_B0Zg1Kpw-168" style="rounded=0;orthogonalLoop=1;jettySize=auto;html=1;exitX=1;exitY=1;exitDx=0;exitDy=0;exitPerimeter=0;entryX=0.5;entryY=0;entryDx=0;entryDy=0;" parent="1" source="sttNLxxdPH-_B0Zg1Kpw-7" target="sttNLxxdPH-_B0Zg1Kpw-166" edge="1">
          <mxGeometry relative="1" as="geometry" />
        </mxCell>
        <mxCell id="sttNLxxdPH-_B0Zg1Kpw-7" value="&lt;span style=&quot;font-family: -webkit-standard; font-size: medium; text-align: start; white-space: normal;&quot;&gt;Пользователь&lt;/span&gt;" style="shape=umlActor;verticalLabelPosition=bottom;verticalAlign=top;html=1;" parent="1" vertex="1">
          <mxGeometry x="110" y="200" width="30" height="60" as="geometry" />
        </mxCell>
        <mxCell id="sttNLxxdPH-_B0Zg1Kpw-8" style="edgeStyle=orthogonalEdgeStyle;rounded=0;orthogonalLoop=1;jettySize=auto;html=1;exitX=1;exitY=0.3333333333333333;exitDx=0;exitDy=0;exitPerimeter=0;entryX=0.5;entryY=1;entryDx=0;entryDy=0;endArrow=none;endFill=0;" parent="1" source="sttNLxxdPH-_B0Zg1Kpw-13" target="sttNLxxdPH-_B0Zg1Kpw-19" edge="1">
          <mxGeometry relative="1" as="geometry" />
        </mxCell>
        <mxCell id="sttNLxxdPH-_B0Zg1Kpw-9" style="edgeStyle=orthogonalEdgeStyle;rounded=0;orthogonalLoop=1;jettySize=auto;html=1;exitX=1;exitY=0.3333333333333333;exitDx=0;exitDy=0;exitPerimeter=0;entryX=0.5;entryY=1;entryDx=0;entryDy=0;endArrow=none;endFill=0;" parent="1" source="sttNLxxdPH-_B0Zg1Kpw-13" target="sttNLxxdPH-_B0Zg1Kpw-18" edge="1">
          <mxGeometry relative="1" as="geometry">
            <Array as="points">
              <mxPoint x="795" y="220" />
            </Array>
          </mxGeometry>
        </mxCell>
        <mxCell id="sttNLxxdPH-_B0Zg1Kpw-10" style="edgeStyle=orthogonalEdgeStyle;rounded=0;orthogonalLoop=1;jettySize=auto;html=1;entryX=1;entryY=0.5;entryDx=0;entryDy=0;endArrow=none;endFill=0;" parent="1" source="sttNLxxdPH-_B0Zg1Kpw-13" target="sttNLxxdPH-_B0Zg1Kpw-47" edge="1">
          <mxGeometry relative="1" as="geometry">
            <Array as="points">
              <mxPoint x="345" y="475" />
            </Array>
          </mxGeometry>
        </mxCell>
        <mxCell id="fNT2HHoY7XVqceSk0JJl-2" style="edgeStyle=orthogonalEdgeStyle;rounded=0;orthogonalLoop=1;jettySize=auto;html=1;entryX=1;entryY=0.5;entryDx=0;entryDy=0;" edge="1" parent="1" source="sttNLxxdPH-_B0Zg1Kpw-13" target="fNT2HHoY7XVqceSk0JJl-1">
          <mxGeometry relative="1" as="geometry">
            <Array as="points">
              <mxPoint x="345" y="320" />
              <mxPoint x="-110" y="320" />
            </Array>
          </mxGeometry>
        </mxCell>
        <mxCell id="sttNLxxdPH-_B0Zg1Kpw-13" value="&lt;span style=&quot;font-family: -webkit-standard; font-size: medium; text-align: start; white-space: normal;&quot;&gt;Авторизованный пользователь&lt;/span&gt;" style="shape=umlActor;verticalLabelPosition=bottom;verticalAlign=top;html=1;" parent="1" vertex="1">
          <mxGeometry x="330" y="200" width="30" height="60" as="geometry" />
        </mxCell>
        <mxCell id="sttNLxxdPH-_B0Zg1Kpw-14" value="Аккаунт" style="shape=umlFrame;whiteSpace=wrap;html=1;pointerEvents=0;" parent="1" vertex="1">
          <mxGeometry x="460" y="-220" width="470" height="250" as="geometry" />
        </mxCell>
        <mxCell id="sttNLxxdPH-_B0Zg1Kpw-15" value="&lt;span style=&quot;font-family: -webkit-standard; font-size: medium; text-align: start;&quot;&gt;Авторизация&lt;/span&gt;" style="ellipse;whiteSpace=wrap;html=1;" parent="1" vertex="1">
          <mxGeometry x="500" y="-60" width="90" height="40" as="geometry" />
        </mxCell>
        <mxCell id="sttNLxxdPH-_B0Zg1Kpw-16" value="&lt;span style=&quot;font-family: -webkit-standard; font-size: medium; text-align: start;&quot;&gt;Регистрация&lt;/span&gt;" style="ellipse;whiteSpace=wrap;html=1;" parent="1" vertex="1">
          <mxGeometry x="620" y="-60" width="90" height="40" as="geometry" />
        </mxCell>
        <mxCell id="sttNLxxdPH-_B0Zg1Kpw-17" value="&amp;lt;&amp;lt;include&amp;gt;&amp;gt;" style="edgeStyle=orthogonalEdgeStyle;rounded=0;orthogonalLoop=1;jettySize=auto;html=1;entryX=0.5;entryY=1;entryDx=0;entryDy=0;dashed=1;" parent="1" source="sttNLxxdPH-_B0Zg1Kpw-18" target="sttNLxxdPH-_B0Zg1Kpw-21" edge="1">
          <mxGeometry relative="1" as="geometry" />
        </mxCell>
        <mxCell id="sttNLxxdPH-_B0Zg1Kpw-18" value="&lt;div style=&quot;text-align: start;&quot;&gt;&lt;span style=&quot;font-family: -webkit-standard; font-size: medium;&quot;&gt;Просмотреть&amp;nbsp;&lt;/span&gt;&lt;br&gt;&lt;/div&gt;&lt;div style=&quot;text-align: start;&quot;&gt;&lt;font size=&quot;3&quot; face=&quot;-webkit-standard&quot;&gt;данные профиля&lt;/font&gt;&lt;/div&gt;" style="ellipse;whiteSpace=wrap;html=1;" parent="1" vertex="1">
          <mxGeometry x="720" y="-70" width="150" height="70" as="geometry" />
        </mxCell>
        <mxCell id="sttNLxxdPH-_B0Zg1Kpw-19" value="&lt;span style=&quot;font-family: -webkit-standard; font-size: medium; text-align: start;&quot;&gt;Выход из аккаунта&lt;/span&gt;" style="ellipse;whiteSpace=wrap;html=1;" parent="1" vertex="1">
          <mxGeometry x="830" y="-120" width="90" height="40" as="geometry" />
        </mxCell>
        <mxCell id="sttNLxxdPH-_B0Zg1Kpw-20" value="&amp;lt;&amp;lt;include&amp;gt;&amp;gt;" style="rounded=0;orthogonalLoop=1;jettySize=auto;html=1;exitX=0;exitY=0;exitDx=0;exitDy=0;entryX=1;entryY=0.5;entryDx=0;entryDy=0;dashed=1;" parent="1" source="sttNLxxdPH-_B0Zg1Kpw-21" target="sttNLxxdPH-_B0Zg1Kpw-22" edge="1">
          <mxGeometry x="0.0115" relative="1" as="geometry">
            <mxPoint as="offset" />
          </mxGeometry>
        </mxCell>
        <mxCell id="sttNLxxdPH-_B0Zg1Kpw-21" value="&lt;div style=&quot;&quot;&gt;&lt;font style=&quot;font-size: 14px;&quot; face=&quot;-webkit-standard&quot;&gt;Получить данные пользователя&lt;/font&gt;&lt;/div&gt;" style="ellipse;whiteSpace=wrap;html=1;align=center;" parent="1" vertex="1">
          <mxGeometry x="720" y="-170" width="120" height="50" as="geometry" />
        </mxCell>
        <mxCell id="sttNLxxdPH-_B0Zg1Kpw-22" value="&lt;div style=&quot;&quot;&gt;&lt;font style=&quot;font-size: 14px;&quot; face=&quot;-webkit-standard&quot;&gt;отобразить данные пользователя&lt;/font&gt;&lt;/div&gt;" style="ellipse;whiteSpace=wrap;html=1;align=center;" parent="1" vertex="1">
          <mxGeometry x="520" y="-200" width="120" height="50" as="geometry" />
        </mxCell>
        <mxCell id="sttNLxxdPH-_B0Zg1Kpw-23" value="Друзья" style="shape=umlFrame;whiteSpace=wrap;html=1;pointerEvents=0;" parent="1" vertex="1">
          <mxGeometry x="-700" y="40" width="650" height="590" as="geometry" />
        </mxCell>
        <mxCell id="sttNLxxdPH-_B0Zg1Kpw-24" value="Получить список друзей" style="ellipse;whiteSpace=wrap;html=1;" parent="1" vertex="1">
          <mxGeometry x="-250" y="140" width="140" height="70" as="geometry" />
        </mxCell>
        <mxCell id="sttNLxxdPH-_B0Zg1Kpw-33" value="&amp;lt;&amp;lt;include&amp;gt;&amp;gt;" style="rounded=0;orthogonalLoop=1;jettySize=auto;html=1;exitX=1;exitY=0;exitDx=0;exitDy=0;entryX=0;entryY=1;entryDx=0;entryDy=0;dashed=1;" parent="1" source="sttNLxxdPH-_B0Zg1Kpw-34" target="sttNLxxdPH-_B0Zg1Kpw-24" edge="1">
          <mxGeometry x="0.0079" relative="1" as="geometry">
            <mxPoint as="offset" />
          </mxGeometry>
        </mxCell>
        <mxCell id="sttNLxxdPH-_B0Zg1Kpw-34" value="Получение данных из API" style="ellipse;whiteSpace=wrap;html=1;" parent="1" vertex="1">
          <mxGeometry x="-445" y="240" width="140" height="70" as="geometry" />
        </mxCell>
        <mxCell id="sttNLxxdPH-_B0Zg1Kpw-39" value="&amp;lt;&amp;lt;extend&amp;gt;&amp;gt;" style="rounded=0;orthogonalLoop=1;jettySize=auto;html=1;exitX=1;exitY=0.5;exitDx=0;exitDy=0;entryX=0.5;entryY=0;entryDx=0;entryDy=0;dashed=1;" parent="1" source="sttNLxxdPH-_B0Zg1Kpw-40" target="sttNLxxdPH-_B0Zg1Kpw-34" edge="1">
          <mxGeometry relative="1" as="geometry" />
        </mxCell>
        <mxCell id="sttNLxxdPH-_B0Zg1Kpw-40" value="Сортировка по возрасту" style="ellipse;whiteSpace=wrap;html=1;" parent="1" vertex="1">
          <mxGeometry x="-585" y="120" width="140" height="70" as="geometry" />
        </mxCell>
        <mxCell id="sttNLxxdPH-_B0Zg1Kpw-45" value="&amp;lt;&amp;lt;extend&amp;gt;&amp;gt;" style="rounded=0;orthogonalLoop=1;jettySize=auto;html=1;exitX=0.5;exitY=0;exitDx=0;exitDy=0;entryX=0;entryY=0.5;entryDx=0;entryDy=0;dashed=1;" parent="1" source="sttNLxxdPH-_B0Zg1Kpw-46" target="sttNLxxdPH-_B0Zg1Kpw-34" edge="1">
          <mxGeometry relative="1" as="geometry" />
        </mxCell>
        <mxCell id="sttNLxxdPH-_B0Zg1Kpw-46" value="Сортировка А/Я" style="ellipse;whiteSpace=wrap;html=1;" parent="1" vertex="1">
          <mxGeometry x="-623" y="290" width="140" height="70" as="geometry" />
        </mxCell>
        <mxCell id="sttNLxxdPH-_B0Zg1Kpw-47" value="Получить список твоих друзей" style="ellipse;whiteSpace=wrap;html=1;" parent="1" vertex="1">
          <mxGeometry x="-280" y="440" width="140" height="70" as="geometry" />
        </mxCell>
        <mxCell id="sttNLxxdPH-_B0Zg1Kpw-48" value="&amp;lt;&amp;lt;extend&amp;gt;&amp;gt;" style="rounded=0;orthogonalLoop=1;jettySize=auto;html=1;exitX=1;exitY=1;exitDx=0;exitDy=0;dashed=1;" parent="1" source="sttNLxxdPH-_B0Zg1Kpw-49" target="sttNLxxdPH-_B0Zg1Kpw-47" edge="1">
          <mxGeometry relative="1" as="geometry" />
        </mxCell>
        <mxCell id="sttNLxxdPH-_B0Zg1Kpw-49" value="Удалить друга из списка" style="ellipse;whiteSpace=wrap;html=1;" parent="1" vertex="1">
          <mxGeometry x="-470" y="470" width="140" height="70" as="geometry" />
        </mxCell>
        <mxCell id="sttNLxxdPH-_B0Zg1Kpw-50" value="&amp;lt;&amp;lt;extend&amp;gt;&amp;gt;" style="rounded=0;orthogonalLoop=1;jettySize=auto;html=1;exitX=1;exitY=0.5;exitDx=0;exitDy=0;dashed=1;" parent="1" source="sttNLxxdPH-_B0Zg1Kpw-51" edge="1">
          <mxGeometry relative="1" as="geometry">
            <mxPoint x="-210" y="510" as="targetPoint" />
          </mxGeometry>
        </mxCell>
        <mxCell id="sttNLxxdPH-_B0Zg1Kpw-51" value="&lt;span style=&quot;text-align: start;&quot;&gt;&lt;font style=&quot;font-size: 12px;&quot; face=&quot;Helvetica&quot;&gt;Получить данные из БД&lt;/font&gt;&lt;/span&gt;" style="ellipse;whiteSpace=wrap;html=1;" parent="1" vertex="1">
          <mxGeometry x="-300" y="540" width="140" height="70" as="geometry" />
        </mxCell>
        <mxCell id="sttNLxxdPH-_B0Zg1Kpw-52" value="&amp;lt;&amp;lt;extend&amp;gt;&amp;gt;" style="rounded=0;orthogonalLoop=1;jettySize=auto;html=1;exitX=0.5;exitY=0;exitDx=0;exitDy=0;entryX=0.557;entryY=1.014;entryDx=0;entryDy=0;dashed=1;entryPerimeter=0;" parent="1" source="sttNLxxdPH-_B0Zg1Kpw-53" target="sttNLxxdPH-_B0Zg1Kpw-34" edge="1">
          <mxGeometry relative="1" as="geometry" />
        </mxCell>
        <mxCell id="sttNLxxdPH-_B0Zg1Kpw-53" value="Добавить в друзья" style="ellipse;whiteSpace=wrap;html=1;" parent="1" vertex="1">
          <mxGeometry x="-440" y="350" width="140" height="70" as="geometry" />
        </mxCell>
        <mxCell id="sttNLxxdPH-_B0Zg1Kpw-77" value="presentation" style="shape=umlFrame;whiteSpace=wrap;html=1;pointerEvents=0;" parent="1" vertex="1">
          <mxGeometry x="1710" y="660" width="470" height="250" as="geometry" />
        </mxCell>
        <mxCell id="sttNLxxdPH-_B0Zg1Kpw-78" value="domain" style="shape=umlFrame;whiteSpace=wrap;html=1;pointerEvents=0;" parent="1" vertex="1">
          <mxGeometry x="1710" y="370" width="470" height="250" as="geometry" />
        </mxCell>
        <mxCell id="sttNLxxdPH-_B0Zg1Kpw-79" value="data" style="shape=umlFrame;whiteSpace=wrap;html=1;pointerEvents=0;" parent="1" vertex="1">
          <mxGeometry x="1710" y="80" width="470" height="250" as="geometry" />
        </mxCell>
        <mxCell id="sttNLxxdPH-_B0Zg1Kpw-80" value="presentation" style="shape=umlFrame;whiteSpace=wrap;html=1;pointerEvents=0;" parent="1" vertex="1">
          <mxGeometry x="2390" y="660" width="470" height="250" as="geometry" />
        </mxCell>
        <mxCell id="sttNLxxdPH-_B0Zg1Kpw-81" value="domain" style="shape=umlFrame;whiteSpace=wrap;html=1;pointerEvents=0;" parent="1" vertex="1">
          <mxGeometry x="2390" y="370" width="470" height="250" as="geometry" />
        </mxCell>
        <mxCell id="sttNLxxdPH-_B0Zg1Kpw-82" value="data" style="shape=umlFrame;whiteSpace=wrap;html=1;pointerEvents=0;" parent="1" vertex="1">
          <mxGeometry x="2390" y="80" width="470" height="250" as="geometry" />
        </mxCell>
        <mxCell id="sttNLxxdPH-_B0Zg1Kpw-83" value="presentation" style="shape=umlFrame;whiteSpace=wrap;html=1;pointerEvents=0;" parent="1" vertex="1">
          <mxGeometry x="3060" y="660" width="470" height="250" as="geometry" />
        </mxCell>
        <mxCell id="sttNLxxdPH-_B0Zg1Kpw-84" value="domain" style="shape=umlFrame;whiteSpace=wrap;html=1;pointerEvents=0;" parent="1" vertex="1">
          <mxGeometry x="3060" y="370" width="470" height="250" as="geometry" />
        </mxCell>
        <mxCell id="sttNLxxdPH-_B0Zg1Kpw-85" value="data" style="shape=umlFrame;whiteSpace=wrap;html=1;pointerEvents=0;" parent="1" vertex="1">
          <mxGeometry x="3060" y="80" width="470" height="250" as="geometry" />
        </mxCell>
        <mxCell id="sttNLxxdPH-_B0Zg1Kpw-86" value="presentation" style="shape=umlFrame;whiteSpace=wrap;html=1;pointerEvents=0;" parent="1" vertex="1">
          <mxGeometry x="3770" y="655" width="470" height="250" as="geometry" />
        </mxCell>
        <mxCell id="sttNLxxdPH-_B0Zg1Kpw-87" value="domain" style="shape=umlFrame;whiteSpace=wrap;html=1;pointerEvents=0;" parent="1" vertex="1">
          <mxGeometry x="3770" y="365" width="470" height="250" as="geometry" />
        </mxCell>
        <mxCell id="sttNLxxdPH-_B0Zg1Kpw-88" value="data" style="shape=umlFrame;whiteSpace=wrap;html=1;pointerEvents=0;" parent="1" vertex="1">
          <mxGeometry x="3770" y="75" width="470" height="250" as="geometry" />
        </mxCell>
        <mxCell id="sttNLxxdPH-_B0Zg1Kpw-89" value="presentation" style="shape=umlFrame;whiteSpace=wrap;html=1;pointerEvents=0;" parent="1" vertex="1">
          <mxGeometry x="4473" y="655" width="470" height="250" as="geometry" />
        </mxCell>
        <mxCell id="sttNLxxdPH-_B0Zg1Kpw-90" value="domain" style="shape=umlFrame;whiteSpace=wrap;html=1;pointerEvents=0;" parent="1" vertex="1">
          <mxGeometry x="4473" y="365" width="470" height="250" as="geometry" />
        </mxCell>
        <mxCell id="sttNLxxdPH-_B0Zg1Kpw-91" value="data" style="shape=umlFrame;whiteSpace=wrap;html=1;pointerEvents=0;" parent="1" vertex="1">
          <mxGeometry x="4473" y="75" width="470" height="250" as="geometry" />
        </mxCell>
        <mxCell id="sttNLxxdPH-_B0Zg1Kpw-92" style="edgeStyle=orthogonalEdgeStyle;rounded=0;orthogonalLoop=1;jettySize=auto;html=1;entryX=1.004;entryY=0.468;entryDx=0;entryDy=0;entryPerimeter=0;exitX=1.004;exitY=0.49;exitDx=0;exitDy=0;exitPerimeter=0;" parent="1" source="sttNLxxdPH-_B0Zg1Kpw-78" target="sttNLxxdPH-_B0Zg1Kpw-79" edge="1">
          <mxGeometry relative="1" as="geometry">
            <Array as="points">
              <mxPoint x="2250" y="492" />
              <mxPoint x="2250" y="197" />
            </Array>
          </mxGeometry>
        </mxCell>
        <mxCell id="sttNLxxdPH-_B0Zg1Kpw-93" style="edgeStyle=orthogonalEdgeStyle;rounded=0;orthogonalLoop=1;jettySize=auto;html=1;entryX=1.004;entryY=0.591;entryDx=0;entryDy=0;entryPerimeter=0;exitX=1;exitY=0.613;exitDx=0;exitDy=0;exitPerimeter=0;" parent="1" source="sttNLxxdPH-_B0Zg1Kpw-78" target="sttNLxxdPH-_B0Zg1Kpw-77" edge="1">
          <mxGeometry relative="1" as="geometry">
            <Array as="points">
              <mxPoint x="2250" y="523" />
              <mxPoint x="2250" y="808" />
            </Array>
          </mxGeometry>
        </mxCell>
        <mxCell id="sttNLxxdPH-_B0Zg1Kpw-94" style="edgeStyle=orthogonalEdgeStyle;rounded=0;orthogonalLoop=1;jettySize=auto;html=1;entryX=-0.001;entryY=0.61;entryDx=0;entryDy=0;entryPerimeter=0;" parent="1" edge="1">
          <mxGeometry relative="1" as="geometry">
            <mxPoint x="2389.9999999999995" y="186.28692307692287" as="sourcePoint" />
            <mxPoint x="2389.5299999999997" y="793.71" as="targetPoint" />
            <Array as="points">
              <mxPoint x="2340" y="186.21" />
              <mxPoint x="2340" y="793.21" />
            </Array>
          </mxGeometry>
        </mxCell>
        <mxCell id="sttNLxxdPH-_B0Zg1Kpw-95" style="edgeStyle=orthogonalEdgeStyle;rounded=0;orthogonalLoop=1;jettySize=auto;html=1;entryX=-0.001;entryY=0.61;entryDx=0;entryDy=0;entryPerimeter=0;" parent="1" edge="1">
          <mxGeometry relative="1" as="geometry">
            <mxPoint x="4469.92" y="191" as="sourcePoint" />
            <mxPoint x="4469.92" y="799" as="targetPoint" />
            <Array as="points">
              <mxPoint x="4419.92" y="191" />
              <mxPoint x="4419.92" y="798" />
            </Array>
          </mxGeometry>
        </mxCell>
        <mxCell id="sttNLxxdPH-_B0Zg1Kpw-96" style="edgeStyle=orthogonalEdgeStyle;rounded=0;orthogonalLoop=1;jettySize=auto;html=1;entryX=-0.001;entryY=0.61;entryDx=0;entryDy=0;entryPerimeter=0;" parent="1" edge="1">
          <mxGeometry relative="1" as="geometry">
            <mxPoint x="3059.92" y="171" as="sourcePoint" />
            <mxPoint x="3059.92" y="779" as="targetPoint" />
            <Array as="points">
              <mxPoint x="3009.92" y="171" />
              <mxPoint x="3009.92" y="778" />
            </Array>
          </mxGeometry>
        </mxCell>
        <mxCell id="sttNLxxdPH-_B0Zg1Kpw-97" style="edgeStyle=orthogonalEdgeStyle;rounded=0;orthogonalLoop=1;jettySize=auto;html=1;entryX=-0.001;entryY=0.61;entryDx=0;entryDy=0;entryPerimeter=0;" parent="1" edge="1">
          <mxGeometry relative="1" as="geometry">
            <mxPoint x="3771.92" y="171" as="sourcePoint" />
            <mxPoint x="3771.92" y="779" as="targetPoint" />
            <Array as="points">
              <mxPoint x="3721.92" y="171" />
              <mxPoint x="3721.92" y="778" />
            </Array>
          </mxGeometry>
        </mxCell>
        <mxCell id="sttNLxxdPH-_B0Zg1Kpw-98" style="edgeStyle=orthogonalEdgeStyle;rounded=0;orthogonalLoop=1;jettySize=auto;html=1;entryX=-0.001;entryY=0.61;entryDx=0;entryDy=0;entryPerimeter=0;" parent="1" edge="1">
          <mxGeometry relative="1" as="geometry">
            <mxPoint x="1709.92" y="201" as="sourcePoint" />
            <mxPoint x="1709.92" y="809" as="targetPoint" />
            <Array as="points">
              <mxPoint x="1659.92" y="201" />
              <mxPoint x="1659.92" y="808" />
            </Array>
          </mxGeometry>
        </mxCell>
        <mxCell id="sttNLxxdPH-_B0Zg1Kpw-99" style="edgeStyle=orthogonalEdgeStyle;rounded=0;orthogonalLoop=1;jettySize=auto;html=1;entryX=1.004;entryY=0.468;entryDx=0;entryDy=0;entryPerimeter=0;exitX=1.004;exitY=0.49;exitDx=0;exitDy=0;exitPerimeter=0;" parent="1" edge="1">
          <mxGeometry relative="1" as="geometry">
            <mxPoint x="2861" y="480.5" as="sourcePoint" />
            <mxPoint x="2861" y="184.5" as="targetPoint" />
            <Array as="points">
              <mxPoint x="2929" y="479.5" />
              <mxPoint x="2929" y="184.5" />
            </Array>
          </mxGeometry>
        </mxCell>
        <mxCell id="sttNLxxdPH-_B0Zg1Kpw-100" style="edgeStyle=orthogonalEdgeStyle;rounded=0;orthogonalLoop=1;jettySize=auto;html=1;entryX=1.004;entryY=0.591;entryDx=0;entryDy=0;entryPerimeter=0;exitX=1;exitY=0.613;exitDx=0;exitDy=0;exitPerimeter=0;" parent="1" edge="1">
          <mxGeometry relative="1" as="geometry">
            <mxPoint x="2859" y="510.5" as="sourcePoint" />
            <mxPoint x="2861" y="795.5" as="targetPoint" />
            <Array as="points">
              <mxPoint x="2929" y="510.5" />
              <mxPoint x="2929" y="795.5" />
            </Array>
          </mxGeometry>
        </mxCell>
        <mxCell id="sttNLxxdPH-_B0Zg1Kpw-101" style="edgeStyle=orthogonalEdgeStyle;rounded=0;orthogonalLoop=1;jettySize=auto;html=1;entryX=1.004;entryY=0.468;entryDx=0;entryDy=0;entryPerimeter=0;exitX=1.004;exitY=0.49;exitDx=0;exitDy=0;exitPerimeter=0;" parent="1" edge="1">
          <mxGeometry relative="1" as="geometry">
            <mxPoint x="3532" y="476" as="sourcePoint" />
            <mxPoint x="3532" y="180" as="targetPoint" />
            <Array as="points">
              <mxPoint x="3600" y="475" />
              <mxPoint x="3600" y="180" />
            </Array>
          </mxGeometry>
        </mxCell>
        <mxCell id="sttNLxxdPH-_B0Zg1Kpw-102" style="edgeStyle=orthogonalEdgeStyle;rounded=0;orthogonalLoop=1;jettySize=auto;html=1;entryX=1.004;entryY=0.591;entryDx=0;entryDy=0;entryPerimeter=0;exitX=1;exitY=0.613;exitDx=0;exitDy=0;exitPerimeter=0;" parent="1" edge="1">
          <mxGeometry relative="1" as="geometry">
            <mxPoint x="3530" y="506" as="sourcePoint" />
            <mxPoint x="3532" y="791" as="targetPoint" />
            <Array as="points">
              <mxPoint x="3600" y="506" />
              <mxPoint x="3600" y="791" />
            </Array>
          </mxGeometry>
        </mxCell>
        <mxCell id="sttNLxxdPH-_B0Zg1Kpw-103" style="edgeStyle=orthogonalEdgeStyle;rounded=0;orthogonalLoop=1;jettySize=auto;html=1;entryX=1.004;entryY=0.468;entryDx=0;entryDy=0;entryPerimeter=0;exitX=1.004;exitY=0.49;exitDx=0;exitDy=0;exitPerimeter=0;" parent="1" edge="1">
          <mxGeometry relative="1" as="geometry">
            <mxPoint x="4240" y="470" as="sourcePoint" />
            <mxPoint x="4240" y="174" as="targetPoint" />
            <Array as="points">
              <mxPoint x="4308" y="469" />
              <mxPoint x="4308" y="174" />
            </Array>
          </mxGeometry>
        </mxCell>
        <mxCell id="sttNLxxdPH-_B0Zg1Kpw-104" style="edgeStyle=orthogonalEdgeStyle;rounded=0;orthogonalLoop=1;jettySize=auto;html=1;entryX=1.004;entryY=0.591;entryDx=0;entryDy=0;entryPerimeter=0;exitX=1;exitY=0.613;exitDx=0;exitDy=0;exitPerimeter=0;" parent="1" edge="1">
          <mxGeometry relative="1" as="geometry">
            <mxPoint x="4240" y="506" as="sourcePoint" />
            <mxPoint x="4242" y="791" as="targetPoint" />
            <Array as="points">
              <mxPoint x="4310" y="506" />
              <mxPoint x="4310" y="791" />
            </Array>
          </mxGeometry>
        </mxCell>
        <mxCell id="sttNLxxdPH-_B0Zg1Kpw-105" style="edgeStyle=orthogonalEdgeStyle;rounded=0;orthogonalLoop=1;jettySize=auto;html=1;entryX=1.004;entryY=0.468;entryDx=0;entryDy=0;entryPerimeter=0;exitX=1.004;exitY=0.49;exitDx=0;exitDy=0;exitPerimeter=0;" parent="1" edge="1">
          <mxGeometry relative="1" as="geometry">
            <mxPoint x="4945" y="496" as="sourcePoint" />
            <mxPoint x="4945" y="200" as="targetPoint" />
            <Array as="points">
              <mxPoint x="5013" y="495" />
              <mxPoint x="5013" y="200" />
            </Array>
          </mxGeometry>
        </mxCell>
        <mxCell id="sttNLxxdPH-_B0Zg1Kpw-106" style="edgeStyle=orthogonalEdgeStyle;rounded=0;orthogonalLoop=1;jettySize=auto;html=1;entryX=1.004;entryY=0.591;entryDx=0;entryDy=0;entryPerimeter=0;exitX=1;exitY=0.613;exitDx=0;exitDy=0;exitPerimeter=0;" parent="1" edge="1">
          <mxGeometry relative="1" as="geometry">
            <mxPoint x="4943" y="526" as="sourcePoint" />
            <mxPoint x="4945" y="811" as="targetPoint" />
            <Array as="points">
              <mxPoint x="5013" y="526" />
              <mxPoint x="5013" y="811" />
            </Array>
          </mxGeometry>
        </mxCell>
        <mxCell id="sttNLxxdPH-_B0Zg1Kpw-107" value="&lt;font style=&quot;font-size: 20px;&quot;&gt;Страница авторизации&lt;/font&gt;" style="text;align=center;fontStyle=1;verticalAlign=middle;spacingLeft=3;spacingRight=3;strokeColor=none;rotatable=0;points=[[0,0.5],[1,0.5]];portConstraint=eastwest;html=1;" parent="1" vertex="1">
          <mxGeometry x="1905" y="30" width="80" height="26" as="geometry" />
        </mxCell>
        <mxCell id="sttNLxxdPH-_B0Zg1Kpw-108" value="LoginUser" style="ellipse;whiteSpace=wrap;html=1;" parent="1" vertex="1">
          <mxGeometry x="1800" y="455" width="140" height="70" as="geometry" />
        </mxCell>
        <mxCell id="sttNLxxdPH-_B0Zg1Kpw-110" value="RegisterUser" style="ellipse;whiteSpace=wrap;html=1;" parent="1" vertex="1">
          <mxGeometry x="1940" y="455" width="140" height="70" as="geometry" />
        </mxCell>
        <mxCell id="sttNLxxdPH-_B0Zg1Kpw-111" style="rounded=0;orthogonalLoop=1;jettySize=auto;html=1;entryX=0.5;entryY=1;entryDx=0;entryDy=0;" parent="1" source="sttNLxxdPH-_B0Zg1Kpw-113" target="sttNLxxdPH-_B0Zg1Kpw-108" edge="1">
          <mxGeometry relative="1" as="geometry" />
        </mxCell>
        <mxCell id="sttNLxxdPH-_B0Zg1Kpw-113" value="Авторизация" style="html=1;whiteSpace=wrap;" parent="1" vertex="1">
          <mxGeometry x="1780" y="720" width="110" height="150" as="geometry" />
        </mxCell>
        <mxCell id="sttNLxxdPH-_B0Zg1Kpw-114" style="rounded=0;orthogonalLoop=1;jettySize=auto;html=1;entryX=0.5;entryY=1;entryDx=0;entryDy=0;" parent="1" source="sttNLxxdPH-_B0Zg1Kpw-115" target="sttNLxxdPH-_B0Zg1Kpw-110" edge="1">
          <mxGeometry relative="1" as="geometry" />
        </mxCell>
        <mxCell id="sttNLxxdPH-_B0Zg1Kpw-115" value="Регистрация" style="html=1;whiteSpace=wrap;" parent="1" vertex="1">
          <mxGeometry x="2013" y="720" width="110" height="150" as="geometry" />
        </mxCell>
        <mxCell id="sttNLxxdPH-_B0Zg1Kpw-116" value="&lt;code style=&quot;text-align: start;&quot;&gt;GetProfile&lt;/code&gt;" style="ellipse;whiteSpace=wrap;html=1;" parent="1" vertex="1">
          <mxGeometry x="2565" y="455" width="140" height="70" as="geometry" />
        </mxCell>
        <mxCell id="sttNLxxdPH-_B0Zg1Kpw-118" style="rounded=0;orthogonalLoop=1;jettySize=auto;html=1;" parent="1" source="sttNLxxdPH-_B0Zg1Kpw-119" target="sttNLxxdPH-_B0Zg1Kpw-116" edge="1">
          <mxGeometry relative="1" as="geometry" />
        </mxCell>
        <mxCell id="sttNLxxdPH-_B0Zg1Kpw-119" value="&lt;code style=&quot;text-align: start;&quot;&gt;ProfileView&lt;/code&gt;" style="html=1;whiteSpace=wrap;" parent="1" vertex="1">
          <mxGeometry x="2580" y="710" width="110" height="150" as="geometry" />
        </mxCell>
        <mxCell id="sttNLxxdPH-_B0Zg1Kpw-122" value="&lt;code style=&quot;text-align: start;&quot;&gt;GetAllFriend&lt;/code&gt;" style="ellipse;whiteSpace=wrap;html=1;" parent="1" vertex="1">
          <mxGeometry x="3160" y="460" width="140" height="70" as="geometry" />
        </mxCell>
        <mxCell id="sttNLxxdPH-_B0Zg1Kpw-123" style="rounded=0;orthogonalLoop=1;jettySize=auto;html=1;entryX=0.5;entryY=1;entryDx=0;entryDy=0;" parent="1" source="sttNLxxdPH-_B0Zg1Kpw-124" target="sttNLxxdPH-_B0Zg1Kpw-122" edge="1">
          <mxGeometry relative="1" as="geometry" />
        </mxCell>
        <mxCell id="sttNLxxdPH-_B0Zg1Kpw-124" value="&lt;code style=&quot;text-align: start;&quot;&gt;friend fragment&lt;/code&gt;" style="html=1;whiteSpace=wrap;" parent="1" vertex="1">
          <mxGeometry x="3235" y="720" width="125" height="160" as="geometry" />
        </mxCell>
        <mxCell id="sttNLxxdPH-_B0Zg1Kpw-125" value="&lt;div style=&quot;text-align: start;&quot;&gt;&lt;font face=&quot;monospace&quot;&gt;UploadImage&lt;/font&gt;&lt;/div&gt;" style="ellipse;whiteSpace=wrap;html=1;" parent="1" vertex="1">
          <mxGeometry x="4020" y="410" width="140" height="70" as="geometry" />
        </mxCell>
        <mxCell id="sttNLxxdPH-_B0Zg1Kpw-126" style="rounded=0;orthogonalLoop=1;jettySize=auto;html=1;entryX=0.5;entryY=1;entryDx=0;entryDy=0;" parent="1" source="sttNLxxdPH-_B0Zg1Kpw-127" target="sttNLxxdPH-_B0Zg1Kpw-125" edge="1">
          <mxGeometry relative="1" as="geometry" />
        </mxCell>
        <mxCell id="sttNLxxdPH-_B0Zg1Kpw-173" style="rounded=0;orthogonalLoop=1;jettySize=auto;html=1;entryX=0.5;entryY=1;entryDx=0;entryDy=0;" parent="1" source="sttNLxxdPH-_B0Zg1Kpw-127" target="sttNLxxdPH-_B0Zg1Kpw-172" edge="1">
          <mxGeometry relative="1" as="geometry" />
        </mxCell>
        <mxCell id="sttNLxxdPH-_B0Zg1Kpw-127" value="&lt;div style=&quot;text-align: start;&quot;&gt;&lt;font face=&quot;monospace&quot;&gt;Aifragment&lt;/font&gt;&lt;/div&gt;" style="html=1;whiteSpace=wrap;" parent="1" vertex="1">
          <mxGeometry x="3950" y="725" width="110" height="150" as="geometry" />
        </mxCell>
        <mxCell id="sttNLxxdPH-_B0Zg1Kpw-128" value="&lt;code style=&quot;text-align: start;&quot;&gt;GetAllAcceptedFriend&lt;/code&gt;" style="ellipse;whiteSpace=wrap;html=1;" parent="1" vertex="1">
          <mxGeometry x="4549" y="455" width="151" height="70" as="geometry" />
        </mxCell>
        <mxCell id="sttNLxxdPH-_B0Zg1Kpw-130" style="rounded=0;orthogonalLoop=1;jettySize=auto;html=1;" parent="1" source="sttNLxxdPH-_B0Zg1Kpw-131" target="sttNLxxdPH-_B0Zg1Kpw-128" edge="1">
          <mxGeometry relative="1" as="geometry" />
        </mxCell>
        <mxCell id="fNT2HHoY7XVqceSk0JJl-20" style="rounded=0;orthogonalLoop=1;jettySize=auto;html=1;entryX=0.5;entryY=1;entryDx=0;entryDy=0;" edge="1" parent="1" source="sttNLxxdPH-_B0Zg1Kpw-131" target="fNT2HHoY7XVqceSk0JJl-19">
          <mxGeometry relative="1" as="geometry" />
        </mxCell>
        <mxCell id="sttNLxxdPH-_B0Zg1Kpw-131" value="&lt;code style=&quot;text-align: start;&quot;&gt;ContactView&lt;/code&gt;" style="html=1;whiteSpace=wrap;" parent="1" vertex="1">
          <mxGeometry x="4668" y="720" width="110" height="150" as="geometry" />
        </mxCell>
        <mxCell id="sttNLxxdPH-_B0Zg1Kpw-134" value="&lt;strong style=&quot;text-align: start;&quot;&gt;UserRepository&lt;/strong&gt;" style="html=1;whiteSpace=wrap;" parent="1" vertex="1">
          <mxGeometry x="1868" y="160" width="130" height="50" as="geometry" />
        </mxCell>
        <mxCell id="sttNLxxdPH-_B0Zg1Kpw-137" value="&lt;span style=&quot;font-family: -webkit-standard; font-size: medium; text-align: start;&quot;&gt;AuthRepository&lt;/span&gt;" style="html=1;whiteSpace=wrap;" parent="1" vertex="1">
          <mxGeometry x="1852.5" y="240" width="185" height="50" as="geometry" />
        </mxCell>
        <mxCell id="sttNLxxdPH-_B0Zg1Kpw-138" value="&lt;code style=&quot;text-align: start;&quot;&gt;UserRepository&lt;/code&gt;" style="html=1;whiteSpace=wrap;" parent="1" vertex="1">
          <mxGeometry x="2470" y="210" width="130" height="50" as="geometry" />
        </mxCell>
        <mxCell id="sttNLxxdPH-_B0Zg1Kpw-140" value="&lt;span style=&quot;text-align: start;&quot;&gt;&lt;font face=&quot;monospace&quot;&gt;Friend&lt;/font&gt;Repository&lt;/span&gt;" style="html=1;whiteSpace=wrap;" parent="1" vertex="1">
          <mxGeometry x="3110" y="140" width="170" height="50" as="geometry" />
        </mxCell>
        <mxCell id="sttNLxxdPH-_B0Zg1Kpw-141" value="&lt;code style=&quot;text-align: start;&quot;&gt;NetworkAPI&lt;/code&gt;" style="html=1;whiteSpace=wrap;" parent="1" vertex="1">
          <mxGeometry x="3360" y="190" width="125" height="50" as="geometry" />
        </mxCell>
        <mxCell id="sttNLxxdPH-_B0Zg1Kpw-142" value="&lt;code style=&quot;text-align: start;&quot;&gt;AIRepository&lt;/code&gt;" style="html=1;whiteSpace=wrap;" parent="1" vertex="1">
          <mxGeometry x="4030" y="140" width="145" height="50" as="geometry" />
        </mxCell>
        <mxCell id="sttNLxxdPH-_B0Zg1Kpw-143" value="&lt;code style=&quot;text-align: start;&quot;&gt;AcceptedFriendRepository&lt;/code&gt;" style="html=1;whiteSpace=wrap;" parent="1" vertex="1">
          <mxGeometry x="4614.5" y="150" width="187" height="50" as="geometry" />
        </mxCell>
        <mxCell id="sttNLxxdPH-_B0Zg1Kpw-144" value="&lt;font style=&quot;font-size: 20px;&quot;&gt;Страница пользователя&lt;/font&gt;" style="text;align=center;fontStyle=1;verticalAlign=middle;spacingLeft=3;spacingRight=3;strokeColor=none;rotatable=0;points=[[0,0.5],[1,0.5]];portConstraint=eastwest;html=1;" parent="1" vertex="1">
          <mxGeometry x="2570" y="30" width="80" height="26" as="geometry" />
        </mxCell>
        <mxCell id="sttNLxxdPH-_B0Zg1Kpw-145" value="&lt;font style=&quot;font-size: 20px;&quot;&gt;Страница c заявками в друзья&lt;/font&gt;" style="text;align=center;fontStyle=1;verticalAlign=middle;spacingLeft=3;spacingRight=3;strokeColor=none;rotatable=0;points=[[0,0.5],[1,0.5]];portConstraint=eastwest;html=1;" parent="1" vertex="1">
          <mxGeometry x="3250" y="24" width="80" height="26" as="geometry" />
        </mxCell>
        <mxCell id="sttNLxxdPH-_B0Zg1Kpw-146" value="&lt;font style=&quot;font-size: 20px;&quot;&gt;Страница ИИ&amp;nbsp;&lt;/font&gt;" style="text;align=center;fontStyle=1;verticalAlign=middle;spacingLeft=3;spacingRight=3;strokeColor=none;rotatable=0;points=[[0,0.5],[1,0.5]];portConstraint=eastwest;html=1;" parent="1" vertex="1">
          <mxGeometry x="3980" y="24" width="80" height="26" as="geometry" />
        </mxCell>
        <mxCell id="sttNLxxdPH-_B0Zg1Kpw-147" value="&lt;font style=&quot;font-size: 20px;&quot;&gt;Страница Списка друзей&lt;/font&gt;" style="text;align=center;fontStyle=1;verticalAlign=middle;spacingLeft=3;spacingRight=3;strokeColor=none;rotatable=0;points=[[0,0.5],[1,0.5]];portConstraint=eastwest;html=1;" parent="1" vertex="1">
          <mxGeometry x="4668" y="24" width="80" height="26" as="geometry" />
        </mxCell>
        <mxCell id="sttNLxxdPH-_B0Zg1Kpw-163" value="ИИ" style="shape=umlFrame;whiteSpace=wrap;html=1;pointerEvents=0;" parent="1" vertex="1">
          <mxGeometry x="-50" y="655" width="470" height="250" as="geometry" />
        </mxCell>
        <mxCell id="fNT2HHoY7XVqceSk0JJl-7" style="rounded=0;orthogonalLoop=1;jettySize=auto;html=1;exitX=0.5;exitY=1;exitDx=0;exitDy=0;entryX=0.5;entryY=0;entryDx=0;entryDy=0;dashed=1;" edge="1" parent="1" source="sttNLxxdPH-_B0Zg1Kpw-166" target="fNT2HHoY7XVqceSk0JJl-6">
          <mxGeometry relative="1" as="geometry" />
        </mxCell>
        <mxCell id="fNT2HHoY7XVqceSk0JJl-8" value="&amp;lt;&amp;lt;include&amp;gt;&amp;gt;" style="edgeLabel;html=1;align=center;verticalAlign=middle;resizable=0;points=[];" vertex="1" connectable="0" parent="fNT2HHoY7XVqceSk0JJl-7">
          <mxGeometry x="-0.0286" y="3" relative="1" as="geometry">
            <mxPoint y="1" as="offset" />
          </mxGeometry>
        </mxCell>
        <mxCell id="sttNLxxdPH-_B0Zg1Kpw-166" value="Найти друга" style="ellipse;whiteSpace=wrap;html=1;" parent="1" vertex="1">
          <mxGeometry x="20" y="690" width="140" height="70" as="geometry" />
        </mxCell>
        <mxCell id="sttNLxxdPH-_B0Zg1Kpw-172" value="&lt;div style=&quot;text-align: start;&quot;&gt;&lt;font face=&quot;monospace&quot;&gt;GetAnswer&lt;/font&gt;&lt;/div&gt;" style="ellipse;whiteSpace=wrap;html=1;" parent="1" vertex="1">
          <mxGeometry x="3840" y="410" width="140" height="70" as="geometry" />
        </mxCell>
        <mxCell id="sttNLxxdPH-_B0Zg1Kpw-174" value="&lt;code style=&quot;text-align: start;&quot;&gt;AImodel&lt;/code&gt;" style="html=1;whiteSpace=wrap;" parent="1" vertex="1">
          <mxGeometry x="3835" y="205" width="145" height="50" as="geometry" />
        </mxCell>
        <mxCell id="fNT2HHoY7XVqceSk0JJl-1" value="&lt;span style=&quot;text-align: start;&quot;&gt;&lt;font style=&quot;font-size: 12px;&quot; face=&quot;Helvetica&quot;&gt;Отклонить все заявки&lt;/font&gt;&lt;/span&gt;" style="ellipse;whiteSpace=wrap;html=1;" vertex="1" parent="1">
          <mxGeometry x="-250" y="290" width="140" height="70" as="geometry" />
        </mxCell>
        <mxCell id="fNT2HHoY7XVqceSk0JJl-5" value="&amp;lt;&amp;lt;extend&amp;gt;&amp;gt;" style="rounded=0;orthogonalLoop=1;jettySize=auto;html=1;exitX=0;exitY=0.5;exitDx=0;exitDy=0;entryX=1;entryY=0.5;entryDx=0;entryDy=0;dashed=1;" edge="1" parent="1" source="fNT2HHoY7XVqceSk0JJl-1" target="sttNLxxdPH-_B0Zg1Kpw-34">
          <mxGeometry relative="1" as="geometry">
            <mxPoint x="-360" y="360" as="sourcePoint" />
            <mxPoint x="-357" y="321" as="targetPoint" />
          </mxGeometry>
        </mxCell>
        <mxCell id="fNT2HHoY7XVqceSk0JJl-12" style="edgeStyle=orthogonalEdgeStyle;rounded=0;orthogonalLoop=1;jettySize=auto;html=1;exitX=1;exitY=0.5;exitDx=0;exitDy=0;entryX=0;entryY=0.5;entryDx=0;entryDy=0;dashed=1;" edge="1" parent="1" source="fNT2HHoY7XVqceSk0JJl-6" target="fNT2HHoY7XVqceSk0JJl-10">
          <mxGeometry relative="1" as="geometry" />
        </mxCell>
        <mxCell id="fNT2HHoY7XVqceSk0JJl-17" value="&amp;lt;&amp;lt;include&amp;gt;&amp;gt;" style="edgeLabel;html=1;align=center;verticalAlign=middle;resizable=0;points=[];" vertex="1" connectable="0" parent="fNT2HHoY7XVqceSk0JJl-12">
          <mxGeometry x="-0.3" y="5" relative="1" as="geometry">
            <mxPoint x="-1" as="offset" />
          </mxGeometry>
        </mxCell>
        <mxCell id="fNT2HHoY7XVqceSk0JJl-6" value="&lt;span style=&quot;text-align: start;&quot;&gt;&lt;font style=&quot;font-size: 12px;&quot; face=&quot;Helvetica&quot;&gt;Загрузить фото человека&lt;/font&gt;&lt;/span&gt;" style="ellipse;whiteSpace=wrap;html=1;" vertex="1" parent="1">
          <mxGeometry x="20" y="795" width="140" height="70" as="geometry" />
        </mxCell>
        <mxCell id="fNT2HHoY7XVqceSk0JJl-13" style="edgeStyle=orthogonalEdgeStyle;rounded=0;orthogonalLoop=1;jettySize=auto;html=1;exitX=0.5;exitY=0;exitDx=0;exitDy=0;entryX=0.5;entryY=1;entryDx=0;entryDy=0;dashed=1;" edge="1" parent="1" source="fNT2HHoY7XVqceSk0JJl-10" target="fNT2HHoY7XVqceSk0JJl-11">
          <mxGeometry relative="1" as="geometry" />
        </mxCell>
        <mxCell id="fNT2HHoY7XVqceSk0JJl-16" value="&amp;lt;&amp;lt;include&amp;gt;&amp;gt;" style="edgeLabel;html=1;align=center;verticalAlign=middle;resizable=0;points=[];" vertex="1" connectable="0" parent="fNT2HHoY7XVqceSk0JJl-13">
          <mxGeometry x="0.0286" y="-9" relative="1" as="geometry">
            <mxPoint as="offset" />
          </mxGeometry>
        </mxCell>
        <mxCell id="fNT2HHoY7XVqceSk0JJl-10" value="&lt;div style=&quot;text-align: start;&quot;&gt;ИИ анализирует фото&lt;/div&gt;" style="ellipse;whiteSpace=wrap;html=1;" vertex="1" parent="1">
          <mxGeometry x="220" y="795" width="140" height="70" as="geometry" />
        </mxCell>
        <mxCell id="fNT2HHoY7XVqceSk0JJl-14" style="edgeStyle=orthogonalEdgeStyle;rounded=0;orthogonalLoop=1;jettySize=auto;html=1;exitX=0;exitY=0.5;exitDx=0;exitDy=0;entryX=1;entryY=0.5;entryDx=0;entryDy=0;dashed=1;" edge="1" parent="1" source="fNT2HHoY7XVqceSk0JJl-11" target="sttNLxxdPH-_B0Zg1Kpw-166">
          <mxGeometry relative="1" as="geometry" />
        </mxCell>
        <mxCell id="fNT2HHoY7XVqceSk0JJl-15" value="&amp;lt;&amp;lt;extend&amp;gt;&amp;gt;" style="edgeLabel;html=1;align=center;verticalAlign=middle;resizable=0;points=[];" vertex="1" connectable="0" parent="fNT2HHoY7XVqceSk0JJl-14">
          <mxGeometry x="-0.0333" y="-2" relative="1" as="geometry">
            <mxPoint x="1" as="offset" />
          </mxGeometry>
        </mxCell>
        <mxCell id="fNT2HHoY7XVqceSk0JJl-11" value="&lt;span style=&quot;text-align: start;&quot;&gt;&lt;font style=&quot;font-size: 12px;&quot; face=&quot;Helvetica&quot;&gt;Получение ответа&lt;/font&gt;&lt;/span&gt;" style="ellipse;whiteSpace=wrap;html=1;" vertex="1" parent="1">
          <mxGeometry x="220" y="690" width="140" height="70" as="geometry" />
        </mxCell>
        <mxCell id="fNT2HHoY7XVqceSk0JJl-19" value="&lt;code style=&quot;text-align: start;&quot;&gt;RemoveFriend&lt;/code&gt;" style="ellipse;whiteSpace=wrap;html=1;" vertex="1" parent="1">
          <mxGeometry x="4740" y="455" width="151" height="70" as="geometry" />
        </mxCell>
      </root>
    </mxGraphModel>
  </diagram>
</mxfile>
